<?xml version="1.0" encoding="iso-8859-1"?>
<!-- Generator: Adobe Illustrator 19.0.0, SVG Export Plug-In . SVG Version: 6.00 Build 0)  -->
<svg version="1.1" id="Layer_1" xmlns="http://www.w3.org/2000/svg" xmlns:xlink="http://www.w3.org/1999/xlink" x="0px" y="0px"
	 viewBox="0 0 512 512" style="enable-background:new 0 0 512 512;" xml:space="preserve">
<path style="fill:#967A56;" d="M422.566,333.529c0.215,12.443-9.813,22.645-22.258,22.645H99.167H89.043
	c-12.295,0-22.261-9.966-22.261-22.261V178.087C66.783,79.732,146.219,0,244.21,0l0,0c97.99,0,177.427,79.732,177.427,178.087
	v101.551L422.566,333.529z"/>
<path style="fill:#7F674C;" d="M355.514,144.696C355.514,206.167,305.681,256,244.21,256s-111.304-49.833-111.304-111.304
	S182.738,33.391,244.21,33.391S355.514,83.224,355.514,144.696z"/>
<path style="fill:#FFDDCF;" d="M342.628,291.314v153.904c0,36.883-29.9,66.783-66.783,66.783H155.497
	c-36.746,0-66.536-29.9-66.536-66.783v-33.391C88.961,325.766,158.468,256,244.21,256l0,0
	C281.568,256,315.841,269.247,342.628,291.314z"/>
<path style="fill:#DBA87B;" d="M283.022,233.739v38.957c0,21.515-17.377,38.957-38.812,38.957l0,0
	c-21.435,0-38.812-17.441-38.812-38.957v-38.957H283.022z"/>
<path style="fill:#F7C592;" d="M244.21,100.174c37.25,0,72.782,2.935,105.253,8.247c3.918,11.371,6.052,23.573,6.052,36.275
	C355.514,206.167,305.681,256,244.21,256c-61.472,0-111.304-49.833-111.304-111.304c0-12.702,2.133-24.904,6.052-36.275
	C171.428,103.109,206.959,100.174,244.21,100.174z"/>
<path style="fill:#DBA87B;" d="M288.575,209.749c-13.273,8.413-28.614,12.86-44.366,12.86s-31.093-4.447-44.366-12.86
	c-5.192-3.291-6.733-10.168-3.443-15.36c3.29-5.192,10.168-6.734,15.36-3.443c9.704,6.15,20.924,9.401,32.449,9.401
	s22.745-3.251,32.449-9.401c5.193-3.289,12.069-1.75,15.36,3.443C295.308,199.582,293.768,206.458,288.575,209.749z"/>
<path style="fill:#665A4B;" d="M220.836,155.826h-2.226c-6.147,0-11.13-4.983-11.13-11.13c0-6.147,4.983-11.13,11.13-11.13h2.226
	c6.147,0,11.13,4.983,11.13,11.13C231.966,150.843,226.983,155.826,220.836,155.826z M280.94,144.696
	c0-6.147-4.983-11.13-11.13-11.13h-2.226c-6.147,0-11.13,4.983-11.13,11.13c0,6.147,4.983,11.13,11.13,11.13h2.226
	C275.957,155.826,280.94,150.843,280.94,144.696z"/>
<path style="fill:#F7C592;" d="M262.835,411.669l36.895-102.577c14.009-38.948,56.939-59.165,95.888-45.156l0,0
	c38.948,14.009,59.165,56.939,45.156,95.888l-36.895,102.577c-14.009,38.948-56.939,59.165-95.888,45.156l0,0
	C269.044,493.547,248.826,450.617,262.835,411.669z"/>
<path style="fill:#665A4B;" d="M365.389,312.184c-2.09,5.781-8.47,8.773-14.251,6.684l-2.094-0.757
	c-0.008-0.003-0.016-0.006-0.023-0.009c-5.766-2.098-8.747-8.469-6.66-14.242c2.089-5.781,8.47-8.773,14.251-6.684l2.094,0.757
	c0.008,0.003,0.016,0.006,0.023,0.009C364.494,300.04,367.476,306.411,365.389,312.184z M404.783,314.597
	c-0.007-0.002-0.014-0.006-0.021-0.008l-2.094-0.757c-5.781-2.091-12.162,0.899-14.253,6.68c-2.089,5.774,0.892,12.147,6.659,14.246
	c0.007,0.002,0.014,0.006,0.021,0.008l2.094,0.757c5.781,2.091,12.162-0.899,14.253-6.681
	C413.531,323.069,410.551,316.696,404.783,314.597z"/>
<path style="fill:#9E3F51;" d="M432.664,382.304l-28.847,80.075c-14.009,38.948-56.939,59.165-95.886,45.156l0,0
	c-38.948-14.009-59.165-56.939-45.156-95.888l29.273-81.261c6.241,22.721,23.05,42.158,46.906,50.738l26.503,9.533
	C388.79,399.051,413.548,395.148,432.664,382.304z"/>
<path style="fill:#EAB250;" d="M385.591,390.508c-6.272,17.342-25.414,26.317-42.756,20.045s-26.317-25.414-20.045-42.756
	c6.272-17.342,25.414-26.317,42.756-20.045C382.888,354.023,391.863,373.166,385.591,390.508z"/>
<path style="fill:#C65842;" d="M375.116,386.719c-4.177,11.55-16.926,17.526-28.475,13.35c-11.55-4.177-17.526-16.926-13.35-28.475
	c4.177-11.55,16.926-17.526,28.475-13.35C373.316,362.421,379.293,375.17,375.116,386.719z"/>
<path style="fill:#FFEB99;" d="M365.276,378.805c0.043,1.365-0.157,2.759-0.649,4.122c-2.083,5.757-8.437,8.736-14.194,6.654
	c-5.757-2.082-8.736-8.437-6.654-14.194c0.498-1.377,1.245-2.59,2.166-3.617L365.276,378.805z"/>
<path style="fill:#FF8F73;" d="M289.948,512H155.497c-36.746,0-66.536-29.9-66.536-66.783v-33.391
	c0-52.95,26.319-99.723,66.536-127.883v127.883c0,18.442,14.949,33.391,33.391,33.391h101.06V512z"/>
<path style="fill:#F7C592;" d="M266.388,445.217h33.144c18.442,0,33.391,14.949,33.391,33.391l0,0
	c0,18.442-14.949,33.391-33.391,33.391h-33.144V445.217z"/>
<g>
</g>
<g>
</g>
<g>
</g>
<g>
</g>
<g>
</g>
<g>
</g>
<g>
</g>
<g>
</g>
<g>
</g>
<g>
</g>
<g>
</g>
<g>
</g>
<g>
</g>
<g>
</g>
<g>
</g>
</svg>
